<svg width="16" height="16" viewBox="0 0 16 16" fill="none" xmlns="http://www.w3.org/2000/svg">
<g clip-path="url(#clip0_1980_6438)">
<path fill-rule="evenodd" clip-rule="evenodd" d="M8 0.0996094C12.3632 0.0996096 15.9004 3.63683 15.9004 8C15.9004 12.3632 12.3632 15.9004 8 15.9004C3.63683 15.9004 0.0996096 12.3632 0.0996094 8C0.0996094 3.63683 3.63683 0.0996094 8 0.0996094ZM5.5166 8.7002L5.52246 8.80566C5.61102 10.4187 5.96597 11.892 6.5127 12.9863L6.70605 13.3428C6.89993 13.6742 7.09636 13.9315 7.28516 14.1182C7.53391 14.364 7.78191 14.5 8 14.5C8.21846 14.5 8.46616 14.3641 8.71484 14.1182C8.96658 13.8692 9.2328 13.4949 9.4873 12.9863L9.58691 12.7764C10.0767 11.707 10.3945 10.318 10.4775 8.80664V8.7002H5.5166ZM11.8848 8.70117L11.8799 8.7959C11.7844 10.7319 11.3406 12.4586 10.6807 13.7256L10.542 13.9922L10.8125 13.8623C11.7919 13.3914 12.6382 12.6825 13.2734 11.8008C13.9087 10.9189 14.3128 9.8917 14.4492 8.81348L14.4639 8.70117H11.8848ZM1.53613 8.70117L1.55078 8.81348C1.68717 9.89171 2.09118 10.919 2.72656 11.8008C3.36188 12.6824 4.208 13.3908 5.1875 13.8613L5.45898 13.9912L5.32031 13.7246C4.65961 12.4585 4.21637 10.731 4.12012 8.79492L4.11523 8.7002L1.53613 8.70117ZM10.6816 2.27734L10.6982 2.30762C11.3488 3.57238 11.7852 5.28602 11.8799 7.20605L11.8848 7.30078L14.4639 7.2998L14.4492 7.1875C14.313 6.10909 13.9088 5.08213 13.2734 4.2002C12.6381 3.31834 11.7922 2.60933 10.8125 2.13867L10.5264 2.00195L10.6816 2.27734ZM5.18555 2.13867L5.16602 2.14844L4.80664 2.33691C3.9844 2.8011 3.27111 3.4392 2.71875 4.20898C2.08738 5.08893 1.68638 6.11301 1.55078 7.1875L1.53613 7.2998H4.11523L4.12012 7.20508C4.21557 5.26904 4.65938 3.5414 5.31934 2.27441L5.46191 2.00098L5.18555 2.13867ZM8 1.5C7.78154 1.5 7.53384 1.63594 7.28516 1.88184C7.09631 2.06857 6.89901 2.32555 6.70508 2.65723L6.5127 3.01367C5.96679 4.10792 5.61085 5.58121 5.52148 7.19434L5.51562 7.2998H10.4844L10.4785 7.19434C10.3892 5.58128 10.034 4.10797 9.4873 3.01367C9.24775 2.53457 8.99804 2.1748 8.75977 1.92676C8.52371 1.68103 8.28954 1.5357 8.0791 1.50586L8.07227 1.50488L8.00781 1.5H8Z" fill="#080A0E"/>
</g>
<defs>
<clipPath id="clip0_1980_6438">
<rect width="16" height="16" fill="white"/>
</clipPath>
</defs>
</svg>
